<svg version="1.1" id="Layer_1" xmlns="http://www.w3.org/2000/svg" xmlns:xlink="http://www.w3.org/1999/xlink" x="0px" y="0px"
	 width="100%" viewBox="0 0 500 500" enable-background="new 0 0 500 500" xml:space="preserve">
<path fill="#000000" opacity="1.000000" stroke="none" 
	d="
M264.000000,501.000000 
	C176.000015,501.000000 88.500038,501.000000 1.000047,501.000000 
	C1.000031,334.333405 1.000031,167.666794 1.000016,1.000136 
	C167.666565,1.000091 334.333130,1.000091 500.999756,1.000046 
	C500.999847,167.666519 500.999847,334.333038 500.999939,500.999786 
	C422.166656,501.000000 343.333344,501.000000 264.000000,501.000000 
M137.475357,246.965775 
	C141.954697,253.757385 148.331665,258.135223 155.766327,261.035645 
	C158.466232,262.088928 159.403137,263.683014 158.685394,266.415009 
	C155.320648,279.222198 164.014618,293.719391 175.404617,299.650665 
	C179.181030,301.617218 183.189651,303.137878 187.300323,304.954407 
	C183.604767,313.710938 184.767685,322.428986 190.139267,329.589600 
	C194.587326,335.519073 195.156174,341.518585 195.054916,348.241425 
	C194.950287,355.185730 197.332123,361.649933 202.222382,366.324036 
	C205.303040,369.268555 206.258835,372.015076 206.031693,375.830872 
	C205.883408,378.321655 205.849152,380.840942 206.039886,383.326263 
	C206.706116,392.008301 210.305542,399.397278 218.145508,403.301300 
	C222.818268,405.628143 224.113922,408.183197 224.148972,413.116943 
	C224.249084,427.214203 231.223969,436.914917 243.322983,439.401276 
	C248.774353,440.521576 254.743698,440.709717 260.202850,439.752075 
	C265.539154,438.815918 271.159698,436.764923 275.521393,433.626953 
	C282.691711,428.468353 284.384430,420.333069 284.023926,411.764069 
	C283.914673,409.166260 283.583344,406.644440 286.908600,405.103424 
	C297.314117,400.281342 302.615417,392.035645 301.954071,380.430450 
	C301.602783,374.266876 301.726227,368.503113 307.691345,364.662994 
	C308.579102,364.091522 308.993103,362.770477 309.601471,361.780945 
	C313.295807,355.771545 312.964539,349.084839 313.087891,342.403320 
	C313.141022,339.524719 313.413055,336.152588 314.910492,333.876007 
	C328.360565,313.427490 341.393066,292.646210 355.930176,272.984467 
	C377.954254,243.196365 386.915436,210.415680 382.031006,173.843018 
	C377.743530,141.740295 362.719604,115.136963 338.407013,94.201927 
	C312.198853,71.634644 281.233398,61.437450 246.658157,63.122692 
	C235.567093,63.663284 224.579330,66.364601 216.446808,74.454094 
	C211.992325,78.885033 207.683243,80.193100 201.712753,80.132370 
	C179.717087,79.908638 159.748184,98.829544 157.837021,120.770561 
	C157.647217,122.949745 155.670517,125.372162 153.866531,126.912819 
	C151.510330,128.925079 148.237091,129.844788 145.811127,131.797134 
	C125.780724,147.917023 121.631599,179.407501 134.866440,201.192581 
	C136.313232,203.574081 136.557159,205.224197 135.221268,207.925873 
	C128.764252,220.984406 129.210037,233.917664 137.475357,246.965775 
z"/>
<path fill="#0A0C0F" opacity="1.000000" stroke="none" 
	d="
M137.235626,246.690781 
	C129.210037,233.917664 128.764252,220.984406 135.221268,207.925873 
	C136.557159,205.224197 136.313232,203.574081 134.866440,201.192581 
	C121.631599,179.407501 125.780724,147.917023 145.811127,131.797134 
	C148.237091,129.844788 151.510330,128.925079 153.866531,126.912819 
	C155.670517,125.372162 157.647217,122.949745 157.837021,120.770561 
	C159.748184,98.829544 179.717087,79.908638 201.712753,80.132370 
	C207.683243,80.193100 211.992325,78.885033 216.446808,74.454094 
	C224.579330,66.364601 235.567093,63.663284 246.658157,63.122692 
	C281.233398,61.437450 312.198853,71.634644 338.407013,94.201927 
	C362.719604,115.136963 377.743530,141.740295 382.031006,173.843018 
	C386.915436,210.415680 377.954254,243.196365 355.930176,272.984467 
	C341.393066,292.646210 328.360565,313.427490 314.910492,333.876007 
	C313.413055,336.152588 313.141022,339.524719 313.087891,342.403320 
	C312.964539,349.084839 313.295807,355.771545 309.601471,361.780945 
	C308.993103,362.770477 308.579102,364.091522 307.691345,364.662994 
	C301.726227,368.503113 301.602783,374.266876 301.954071,380.430450 
	C302.615417,392.035645 297.314117,400.281342 286.908600,405.103424 
	C283.583344,406.644440 283.914673,409.166260 284.023926,411.764069 
	C284.384430,420.333069 282.691711,428.468353 275.521393,433.626953 
	C271.159698,436.764923 265.539154,438.815918 260.202850,439.752075 
	C254.743698,440.709717 248.774353,440.521576 243.322983,439.401276 
	C231.223969,436.914917 224.249084,427.214203 224.148972,413.116943 
	C224.113922,408.183197 222.818268,405.628143 218.145508,403.301300 
	C210.305542,399.397278 206.706116,392.008301 206.039886,383.326263 
	C205.849152,380.840942 205.883408,378.321655 206.031693,375.830872 
	C206.258835,372.015076 205.303040,369.268555 202.222382,366.324036 
	C197.332123,361.649933 194.950287,355.185730 195.054916,348.241425 
	C195.156174,341.518585 194.587326,335.519073 190.139267,329.589600 
	C184.767685,322.428986 183.604767,313.710938 187.300323,304.954407 
	C183.189651,303.137878 179.181030,301.617218 175.404617,299.650665 
	C164.014618,293.719391 155.320648,279.222198 158.685394,266.415009 
	C159.403137,263.683014 158.466232,262.088928 155.766327,261.035645 
	C148.331665,258.135223 141.954697,253.757385 137.235626,246.690781 
M285.843994,79.633499 
	C278.086273,78.092743 270.328552,76.551987 262.248169,74.947144 
	C262.248169,111.070389 262.248169,146.111618 262.248169,181.227905 
	C267.683594,181.227905 272.777374,181.227905 278.084167,181.227905 
	C278.423645,177.864410 278.570007,174.711853 279.089661,171.622040 
	C280.153595,165.295471 281.637665,159.024673 287.927856,155.672607 
	C297.387512,150.631516 310.599915,155.481201 314.940247,165.405502 
	C319.811432,176.543716 314.796600,188.502304 303.516144,192.052368 
	C299.627075,193.276306 295.495697,193.730286 291.403595,194.550293 
	C291.403595,238.059601 291.403595,281.490021 291.403595,325.498657 
	C294.067841,325.498657 296.565674,325.235413 298.986847,325.554199 
	C303.832153,326.192200 306.723541,324.364563 309.468048,320.176483 
	C322.420898,300.410889 335.624023,280.803558 349.048950,261.354553 
	C367.493408,234.633636 375.359467,205.298767 369.387787,173.297852 
	C360.542297,125.897026 332.510498,94.805634 285.843994,79.633499 
M249.177216,126.500023 
	C249.177216,109.718582 249.177216,92.937149 249.177216,75.931076 
	C237.781845,75.723831 227.973755,78.534370 222.301346,88.094612 
	C218.536072,94.440582 221.301102,101.527031 223.947845,107.603928 
	C229.064224,107.019371 233.500870,106.397156 237.958679,106.036453 
	C242.187164,105.694305 245.161621,107.504921 245.811935,111.905869 
	C246.345016,115.513435 243.449341,118.085693 238.728058,118.541672 
	C237.235580,118.685806 235.728165,118.707069 234.245148,118.911827 
	C226.554321,119.973709 220.878540,123.917992 217.823822,131.099670 
	C216.602509,133.970993 216.000443,137.123520 215.284348,140.187286 
	C214.436691,143.813919 212.343582,145.772614 208.563324,145.366516 
	C204.833099,144.965790 202.979538,142.619415 202.937195,138.955200 
	C202.918182,137.310181 202.934875,135.500793 203.568985,134.041260 
	C206.002441,128.440033 208.697769,122.952736 211.282806,117.417061 
	C211.807877,116.292633 212.908844,114.987305 212.672806,114.029396 
	C210.981674,107.166229 209.013504,100.371330 207.103027,93.444908 
	C189.816376,90.867065 171.762253,104.993889 170.922379,122.273834 
	C170.820068,124.378708 171.905212,127.168556 173.420258,128.612305 
	C178.919769,133.852966 182.261459,140.213013 184.525421,147.288193 
	C185.788666,151.235992 184.643036,154.528885 180.765884,155.820328 
	C176.962296,157.087265 174.005539,155.358276 172.523407,151.404465 
	C171.416779,148.452301 170.353577,145.440811 168.839630,142.693466 
	C165.790085,137.159515 164.020996,136.714218 158.454559,139.365601 
	C137.240021,149.470398 136.488174,183.252045 148.170944,197.085541 
	C148.910004,197.960663 150.777710,198.411728 152.016968,198.253006 
	C163.708298,196.755676 173.917908,191.640137 183.285797,184.764694 
	C184.213684,184.083694 184.261719,182.009445 184.448669,180.547394 
	C185.218002,174.531723 185.460098,168.410660 186.743729,162.512817 
	C187.527084,158.913574 190.999420,157.873505 194.423279,159.143799 
	C197.806458,160.399002 199.238007,163.077972 198.289032,166.733124 
	C197.913422,168.179825 197.276093,169.575287 197.042786,171.039474 
	C195.727066,179.296448 199.167725,185.176895 206.156204,189.402435 
	C210.361267,191.944992 211.526520,195.732635 209.455872,198.966995 
	C207.294449,202.343140 203.727234,202.797272 199.414551,200.052429 
	C196.767212,198.367538 194.270294,196.446274 191.652328,194.593292 
	C190.834351,195.112366 190.141281,195.550461 189.449905,195.991150 
	C177.564957,203.566635 165.225113,209.898331 150.841904,211.313660 
	C149.200684,211.475159 147.169876,213.483917 146.339844,215.145691 
	C140.725037,226.386948 145.189880,240.342560 156.243423,246.772324 
	C160.991180,249.534058 165.744247,251.781662 170.862045,247.331833 
	C171.942352,246.392532 173.503891,245.792847 174.937012,245.510635 
	C180.764755,244.363037 183.976562,241.328735 184.300949,235.023102 
	C184.438034,232.358047 186.070114,229.678787 187.369720,227.186996 
	C189.118591,223.833817 191.893997,222.236038 195.642868,224.005539 
	C199.611435,225.878723 199.975433,229.169601 198.578125,232.866821 
	C194.021988,244.922104 194.252075,245.836716 204.144302,254.430084 
	C206.705307,256.654846 207.602936,259.428589 205.819275,262.448639 
	C203.948868,265.615540 200.904907,266.670044 197.687561,264.882141 
	C194.525421,263.124878 191.388245,261.039948 188.881012,258.472839 
	C186.715286,256.255402 185.025406,254.487778 181.837891,256.242279 
	C179.267792,257.656982 175.432755,258.355774 174.298340,260.502655 
	C170.771622,267.176910 169.440384,274.402618 174.281769,281.300110 
	C180.446213,290.082520 189.816635,292.166870 199.629120,293.097778 
	C200.774628,293.206451 202.145477,292.310272 203.219070,291.591858 
	C212.558640,285.341949 220.267532,277.730682 223.698669,266.620178 
	C224.942886,262.591187 227.427231,260.200195 231.861252,261.350647 
	C235.685638,262.342926 237.400024,266.180878 235.605530,270.775482 
	C233.744003,275.541687 231.550369,280.298431 228.727280,284.544220 
	C222.507324,293.898712 213.714584,300.444611 203.904434,305.740448 
	C199.361343,308.192993 197.730591,312.471191 199.013016,317.596680 
	C200.534821,323.678864 202.226929,324.979553 208.588913,325.035614 
	C220.254242,325.138336 231.919388,325.260406 243.584656,325.368927 
	C245.328506,325.385132 247.072632,325.371216 248.417587,325.371216 
	C248.876373,324.436096 249.009048,324.291809 249.009369,324.147217 
	C249.072937,295.319611 249.142639,266.491943 249.127762,237.664337 
	C249.127136,236.450623 248.627792,235.001419 247.866638,234.062500 
	C243.292938,228.420639 237.539276,224.605408 230.157944,223.936005 
	C226.866745,223.637543 223.519791,224.009445 220.200211,223.953949 
	C216.379105,223.890091 213.663971,222.004883 213.223419,218.174271 
	C212.797623,214.472015 215.090271,212.186722 218.637894,211.571579 
	C221.409012,211.091049 224.366821,210.527802 227.064301,211.004654 
	C234.435028,212.307617 241.711975,214.141068 249.179611,215.798492 
	C249.179611,206.997604 249.265594,197.343964 249.087006,187.695190 
	C249.060196,186.245651 248.083496,184.559128 247.057404,183.424133 
	C240.634125,176.319092 232.716843,172.285965 222.994598,171.863647 
	C218.192902,171.655060 215.763809,169.117020 215.960556,165.220596 
	C216.163971,161.192169 219.283478,158.550507 224.113953,159.385513 
	C229.964050,160.396744 235.729797,162.037292 241.418365,163.777176 
	C243.966721,164.556610 246.238510,166.240265 249.177414,167.801285 
	C249.177414,153.806839 249.177414,140.653427 249.177216,126.500023 
M278.844238,251.500076 
	C278.844238,232.422104 278.844238,213.344116 278.844238,194.364929 
	C272.790497,194.364929 267.396210,194.364929 262.101257,194.364929 
	C262.101257,238.155945 262.101257,281.577759 262.101257,325.183899 
	C267.708771,325.183899 273.115326,325.183899 278.844238,325.183899 
	C278.844238,300.739227 278.844238,276.619659 278.844238,251.500076 
M277.483826,360.535736 
	C281.642181,360.471680 285.819183,360.631561 289.954315,360.287994 
	C295.360626,359.838837 299.372681,356.017426 299.846130,350.761475 
	C300.199036,346.844238 299.915741,342.869720 299.915741,338.756958 
	C269.323975,338.756958 239.111649,338.756958 208.363007,338.756958 
	C208.363007,341.146881 208.361542,343.269348 208.363266,345.391785 
	C208.372742,357.036102 211.863251,360.526459 223.554352,360.532990 
	C241.199356,360.542877 258.844360,360.535614 277.483826,360.535736 
M248.500305,393.838165 
	C257.987335,393.835968 267.475983,393.938751 276.960907,393.796204 
	C283.729187,393.694489 288.283539,390.029175 288.858368,384.100220 
	C289.237030,380.194550 288.929993,376.222443 288.929993,372.117981 
	C265.561920,372.117981 242.682556,372.117981 219.221588,372.117981 
	C219.221588,375.329071 219.158524,378.284241 219.233582,381.235840 
	C219.446274,389.598389 223.563232,393.673157 232.022064,393.819611 
	C237.180145,393.908905 242.341019,393.837402 248.500305,393.838165 
M250.744171,427.000305 
	C253.896851,426.987427 257.057556,427.112762 260.200409,426.930511 
	C265.408112,426.628448 269.617218,423.395508 270.335144,418.303833 
	C270.941559,414.003174 270.460052,409.549103 270.460052,405.295715 
	C259.351318,405.295715 248.622742,405.295715 237.671356,405.295715 
	C237.671356,408.565308 237.620544,411.541168 237.681076,414.514771 
	C237.849197,422.774109 241.478989,426.481689 250.744171,427.000305 
M303.958618,172.799088 
	C302.859192,168.730331 300.206329,166.000793 296.053162,167.163330 
	C293.675903,167.828751 290.993713,170.308121 290.073303,172.618088 
	C288.560486,176.414856 291.674042,180.439697 295.572266,181.021957 
	C300.256775,181.721664 303.131561,179.197952 303.958618,172.799088 
z"/>
<path fill="#EAD9A7" opacity="1.000000" stroke="none" 
	d="
M286.229065,79.761734 
	C332.510498,94.805634 360.542297,125.897026 369.387787,173.297852 
	C375.359467,205.298767 367.493408,234.633636 349.048950,261.354553 
	C335.624023,280.803558 322.420898,300.410889 309.468048,320.176483 
	C306.723541,324.364563 303.832153,326.192200 298.986847,325.554199 
	C296.565674,325.235413 294.067841,325.498657 291.403595,325.498657 
	C291.403595,281.490021 291.403595,238.059601 291.403595,194.550293 
	C295.495697,193.730286 299.627075,193.276306 303.516144,192.052368 
	C314.796600,188.502304 319.811432,176.543716 314.940247,165.405502 
	C310.599915,155.481201 297.387512,150.631516 287.927856,155.672607 
	C281.637665,159.024673 280.153595,165.295471 279.089661,171.622040 
	C278.570007,174.711853 278.423645,177.864410 278.084167,181.227905 
	C272.777374,181.227905 267.683594,181.227905 262.248169,181.227905 
	C262.248169,146.111618 262.248169,111.070389 262.248169,74.947144 
	C270.328552,76.551987 278.086273,78.092743 286.229065,79.761734 
z"/>
<path fill="#E95839" opacity="1.000000" stroke="none" 
	d="
M249.177307,127.000031 
	C249.177414,140.653427 249.177414,153.806839 249.177414,167.801285 
	C246.238510,166.240265 243.966721,164.556610 241.418365,163.777176 
	C235.729797,162.037292 229.964050,160.396744 224.113953,159.385513 
	C219.283478,158.550507 216.163971,161.192169 215.960556,165.220596 
	C215.763809,169.117020 218.192902,171.655060 222.994598,171.863647 
	C232.716843,172.285965 240.634125,176.319092 247.057404,183.424133 
	C248.083496,184.559128 249.060196,186.245651 249.087006,187.695190 
	C249.265594,197.343964 249.179611,206.997604 249.179611,215.798492 
	C241.711975,214.141068 234.435028,212.307617 227.064301,211.004654 
	C224.366821,210.527802 221.409012,211.091049 218.637894,211.571579 
	C215.090271,212.186722 212.797623,214.472015 213.223419,218.174271 
	C213.663971,222.004883 216.379105,223.890091 220.200211,223.953949 
	C223.519791,224.009445 226.866745,223.637543 230.157944,223.936005 
	C237.539276,224.605408 243.292938,228.420639 247.866638,234.062500 
	C248.627792,235.001419 249.127136,236.450623 249.127762,237.664337 
	C249.142639,266.491943 249.072937,295.319611 249.009369,324.147217 
	C249.009048,324.291809 248.876373,324.436096 248.417587,325.371216 
	C247.072632,325.371216 245.328506,325.385132 243.584656,325.368927 
	C231.919388,325.260406 220.254242,325.138336 208.588913,325.035614 
	C202.226929,324.979553 200.534821,323.678864 199.013016,317.596680 
	C197.730591,312.471191 199.361343,308.192993 203.904434,305.740448 
	C213.714584,300.444611 222.507324,293.898712 228.727280,284.544220 
	C231.550369,280.298431 233.744003,275.541687 235.605530,270.775482 
	C237.400024,266.180878 235.685638,262.342926 231.861252,261.350647 
	C227.427231,260.200195 224.942886,262.591187 223.698669,266.620178 
	C220.267532,277.730682 212.558640,285.341949 203.219070,291.591858 
	C202.145477,292.310272 200.774628,293.206451 199.629120,293.097778 
	C189.816635,292.166870 180.446213,290.082520 174.281769,281.300110 
	C169.440384,274.402618 170.771622,267.176910 174.298340,260.502655 
	C175.432755,258.355774 179.267792,257.656982 181.837891,256.242279 
	C185.025406,254.487778 186.715286,256.255402 188.881012,258.472839 
	C191.388245,261.039948 194.525421,263.124878 197.687561,264.882141 
	C200.904907,266.670044 203.948868,265.615540 205.819275,262.448639 
	C207.602936,259.428589 206.705307,256.654846 204.144302,254.430084 
	C194.252075,245.836716 194.021988,244.922104 198.578125,232.866821 
	C199.975433,229.169601 199.611435,225.878723 195.642868,224.005539 
	C191.893997,222.236038 189.118591,223.833817 187.369720,227.186996 
	C186.070114,229.678787 184.438034,232.358047 184.300949,235.023102 
	C183.976562,241.328735 180.764755,244.363037 174.937012,245.510635 
	C173.503891,245.792847 171.942352,246.392532 170.862045,247.331833 
	C165.744247,251.781662 160.991180,249.534058 156.243423,246.772324 
	C145.189880,240.342560 140.725037,226.386948 146.339844,215.145691 
	C147.169876,213.483917 149.200684,211.475159 150.841904,211.313660 
	C165.225113,209.898331 177.564957,203.566635 189.449905,195.991150 
	C190.141281,195.550461 190.834351,195.112366 191.652328,194.593292 
	C194.270294,196.446274 196.767212,198.367538 199.414551,200.052429 
	C203.727234,202.797272 207.294449,202.343140 209.455872,198.966995 
	C211.526520,195.732635 210.361267,191.944992 206.156204,189.402435 
	C199.167725,185.176895 195.727066,179.296448 197.042786,171.039474 
	C197.276093,169.575287 197.913422,168.179825 198.289032,166.733124 
	C199.238007,163.077972 197.806458,160.399002 194.423279,159.143799 
	C190.999420,157.873505 187.527084,158.913574 186.743729,162.512817 
	C185.460098,168.410660 185.218002,174.531723 184.448669,180.547394 
	C184.261719,182.009445 184.213684,184.083694 183.285797,184.764694 
	C173.917908,191.640137 163.708298,196.755676 152.016968,198.253006 
	C150.777710,198.411728 148.910004,197.960663 148.170944,197.085541 
	C136.488174,183.252045 137.240021,149.470398 158.454559,139.365601 
	C164.020996,136.714218 165.790085,137.159515 168.839630,142.693466 
	C170.353577,145.440811 171.416779,148.452301 172.523407,151.404465 
	C174.005539,155.358276 176.962296,157.087265 180.765884,155.820328 
	C184.643036,154.528885 185.788666,151.235992 184.525421,147.288193 
	C182.261459,140.213013 178.919769,133.852966 173.420258,128.612305 
	C171.905212,127.168556 170.820068,124.378708 170.922379,122.273834 
	C171.762253,104.993889 189.816376,90.867065 207.103027,93.444908 
	C209.013504,100.371330 210.981674,107.166229 212.672806,114.029396 
	C212.908844,114.987305 211.807877,116.292633 211.282806,117.417061 
	C208.697769,122.952736 206.002441,128.440033 203.568985,134.041260 
	C202.934875,135.500793 202.918182,137.310181 202.937195,138.955200 
	C202.979538,142.619415 204.833099,144.965790 208.563324,145.366516 
	C212.343582,145.772614 214.436691,143.813919 215.284348,140.187286 
	C216.000443,137.123520 216.602509,133.970993 217.823822,131.099670 
	C220.878540,123.917992 226.554321,119.973709 234.245148,118.911827 
	C235.728165,118.707069 237.235580,118.685806 238.728058,118.541672 
	C243.449341,118.085693 246.345016,115.513435 245.811935,111.905869 
	C245.161621,107.504921 242.187164,105.694305 237.958679,106.036453 
	C233.500870,106.397156 229.064224,107.019371 223.947845,107.603928 
	C221.301102,101.527031 218.536072,94.440582 222.301346,88.094612 
	C227.973755,78.534370 237.781845,75.723831 249.177216,75.931076 
	C249.177216,92.937149 249.177216,109.718582 249.177307,127.000031 
z"/>
<path fill="#E7D6A5" opacity="1.000000" stroke="none" 
	d="
M278.844238,252.000092 
	C278.844238,276.619659 278.844238,300.739227 278.844238,325.183899 
	C273.115326,325.183899 267.708771,325.183899 262.101257,325.183899 
	C262.101257,281.577759 262.101257,238.155945 262.101257,194.364929 
	C267.396210,194.364929 272.790497,194.364929 278.844238,194.364929 
	C278.844238,213.344116 278.844238,232.422104 278.844238,252.000092 
z"/>
<path fill="#E1D1A1" opacity="1.000000" stroke="none" 
	d="
M276.986603,360.535706 
	C258.844360,360.535614 241.199356,360.542877 223.554352,360.532990 
	C211.863251,360.526459 208.372742,357.036102 208.363266,345.391785 
	C208.361542,343.269348 208.363007,341.146881 208.363007,338.756958 
	C239.111649,338.756958 269.323975,338.756958 299.915741,338.756958 
	C299.915741,342.869720 300.199036,346.844238 299.846130,350.761475 
	C299.372681,356.017426 295.360626,359.838837 289.954315,360.287994 
	C285.819183,360.631561 281.642181,360.471680 276.986603,360.535706 
z"/>
<path fill="#E85838" opacity="1.000000" stroke="none" 
	d="
M248.000473,393.838135 
	C242.341019,393.837402 237.180145,393.908905 232.022064,393.819611 
	C223.563232,393.673157 219.446274,389.598389 219.233582,381.235840 
	C219.158524,378.284241 219.221588,375.329071 219.221588,372.117981 
	C242.682556,372.117981 265.561920,372.117981 288.929993,372.117981 
	C288.929993,376.222443 289.237030,380.194550 288.858368,384.100220 
	C288.283539,390.029175 283.729187,393.694489 276.960907,393.796204 
	C267.475983,393.938751 257.987335,393.835968 248.000473,393.838135 
z"/>
<path fill="#E9D8A6" opacity="1.000000" stroke="none" 
	d="
M250.287888,427.000153 
	C241.478989,426.481689 237.849197,422.774109 237.681076,414.514771 
	C237.620544,411.541168 237.671356,408.565308 237.671356,405.295715 
	C248.622742,405.295715 259.351318,405.295715 270.460052,405.295715 
	C270.460052,409.549103 270.941559,414.003174 270.335144,418.303833 
	C269.617218,423.395508 265.408112,426.628448 260.200409,426.930511 
	C257.057556,427.112762 253.896851,426.987427 250.287888,427.000153 
z"/>
<path fill="#E6D6A5" opacity="1.000000" stroke="none" 
	d="
M303.993164,173.199142 
	C303.131561,179.197952 300.256775,181.721664 295.572266,181.021957 
	C291.674042,180.439697 288.560486,176.414856 290.073303,172.618088 
	C290.993713,170.308121 293.675903,167.828751 296.053162,167.163330 
	C300.206329,166.000793 302.859192,168.730331 303.993164,173.199142 
z"/>
</svg>